<svg width="25" height="25" viewBox="0 0 25 25" fill="none" xmlns="http://www.w3.org/2000/svg">
<path d="M17.2233 17.1408C17.0248 16.9488 16.7082 16.9541 16.5162 17.1525C16.3242 17.351 16.3295 17.6676 16.5279 17.8596L17.2233 17.1408ZM19.8357 21.0596C20.0342 21.2516 20.3507 21.2463 20.5427 21.0478C20.7347 20.8494 20.7295 20.5328 20.531 20.3408L19.8357 21.0596ZM11.6119 7.62877C11.3358 7.62877 11.1119 7.85262 11.1119 8.12877C11.1119 8.40491 11.3358 8.62877 11.6119 8.62877V7.62877ZM14.5405 11.5573C14.5405 11.8335 14.7644 12.0573 15.0405 12.0573C15.3166 12.0573 15.5405 11.8335 15.5405 11.5573H14.5405ZM18.6167 12.1669C18.6167 16.0144 15.4976 19.1335 11.65 19.1335V20.1335C16.0499 20.1335 19.6167 16.5667 19.6167 12.1669H18.6167ZM11.65 19.1335C7.80243 19.1335 4.68335 16.0144 4.68335 12.1669H3.68335C3.68335 16.5667 7.25015 20.1335 11.65 20.1335V19.1335ZM4.68335 12.1669C4.68335 8.31928 7.80243 5.2002 11.65 5.2002V4.2002C7.25015 4.2002 3.68335 7.76699 3.68335 12.1669H4.68335ZM11.65 5.2002C15.4976 5.2002 18.6167 8.31928 18.6167 12.1669H19.6167C19.6167 7.76699 16.0499 4.2002 11.65 4.2002V5.2002ZM16.5279 17.8596L19.8357 21.0596L20.531 20.3408L17.2233 17.1408L16.5279 17.8596ZM11.6119 8.62877C13.2293 8.62877 14.5405 9.93993 14.5405 11.5573H15.5405C15.5405 9.38765 13.7816 7.62877 11.6119 7.62877V8.62877Z" fill="#DBDBDB" fill-opacity="0.623529"/>
</svg>
